<svg width="70" height="70" viewBox="0 0 70 70" fill="none" xmlns="http://www.w3.org/2000/svg">
<path d="M35 5.83334C31.1698 5.83334 27.377 6.58776 23.8384 8.05352C20.2997 9.51929 17.0844 11.6677 14.376 14.3761C8.90622 19.8459 5.83331 27.2645 5.83331 35C5.83331 42.7355 8.90622 50.1542 14.376 55.624C17.0844 58.3323 20.2997 60.4807 23.8384 61.9465C27.377 63.4123 31.1698 64.1667 35 64.1667C42.7355 64.1667 50.1541 61.0938 55.6239 55.624C61.0937 50.1542 64.1667 42.7355 64.1667 35C64.1667 31.1698 63.4122 27.3771 61.9465 23.8384C60.4807 20.2997 58.3323 17.0844 55.6239 14.3761C52.9156 11.6677 49.7002 9.51929 46.1616 8.05352C42.6229 6.58776 38.8302 5.83334 35 5.83334ZM35 24.4708C39.7061 27.5283 45.1962 29.1592 50.8083 29.1667C53.0833 29.1667 55.2708 28.9042 57.3708 28.4083C57.9833 30.4792 58.3333 32.6958 58.3333 35C58.3333 47.8625 47.8625 58.3334 35 58.3334C26.25 58.3334 18.6375 53.4917 14.5833 46.3458L19.6875 40.8333V37.9167C19.6875 36.9497 20.0716 36.0224 20.7553 35.3387C21.439 34.655 22.3664 34.2708 23.3333 34.2708C24.3003 34.2708 25.2276 34.655 25.9113 35.3387C26.595 36.0224 26.9791 36.9497 26.9791 37.9167V40.8333H35V24.4708ZM46.6666 34.2708C45.6997 34.2708 44.7724 34.655 44.0887 35.3387C43.4049 36.0224 43.0208 36.9497 43.0208 37.9167C43.0208 38.8836 43.4049 39.8109 44.0887 40.4947C44.7724 41.1784 45.6997 41.5625 46.6666 41.5625C47.6336 41.5625 48.5609 41.1784 49.2446 40.4947C49.9284 39.8109 50.3125 38.8836 50.3125 37.9167C50.3125 36.9497 49.9284 36.0224 49.2446 35.3387C48.5609 34.655 47.6336 34.2708 46.6666 34.2708Z" fill="black"/>
</svg>
