<svg width="70" height="70" viewBox="0 0 70 70" fill="none" xmlns="http://www.w3.org/2000/svg">
<path d="M62.8639 11.6667C62.5989 11.6394 62.3317 11.6394 62.0667 11.6667H7.62223C7.27329 11.6721 6.92666 11.7244 6.59167 11.8222L34.6889 39.8028L62.8639 11.6667Z" fill="black"/>
<path d="M65.7418 14.3694L37.4306 42.5639C36.702 43.2882 35.7164 43.6948 34.689 43.6948C33.6616 43.6948 32.6759 43.2882 31.9473 42.5639L3.88898 14.5833C3.80272 14.9004 3.75699 15.227 3.75287 15.5556V54.4444C3.75287 55.4758 4.16259 56.465 4.8919 57.1943C5.62121 57.9236 6.61036 58.3333 7.64176 58.3333H62.0862C63.1176 58.3333 64.1068 57.9236 64.8361 57.1943C65.5654 56.465 65.9751 55.4758 65.9751 54.4444V15.5556C65.9596 15.1504 65.8809 14.7502 65.7418 14.3694ZM10.3056 54.4444H7.60287V51.6639L21.739 37.6444L24.4806 40.3861L10.3056 54.4444ZM62.0473 54.4444H59.3251L45.1501 40.3861L47.8918 37.6444L62.0279 51.6639L62.0473 54.4444Z" fill="black"/>
</svg>
