<svg width="70" height="70" viewBox="0 0 70 70" fill="none" xmlns="http://www.w3.org/2000/svg">
<path d="M63.4171 35.9654L37.1671 6.79874C36.0617 5.5679 33.9383 5.5679 32.8329 6.79874L6.58291 35.9654C6.20507 36.3842 5.95707 36.9038 5.86904 37.461C5.78101 38.0181 5.85676 38.5888 6.08708 39.1037C6.55374 40.1567 7.59791 40.8333 8.74999 40.8333H14.5833V61.25C14.5833 62.0235 14.8906 62.7654 15.4376 63.3124C15.9846 63.8594 16.7264 64.1667 17.5 64.1667H26.25C27.0235 64.1667 27.7654 63.8594 28.3124 63.3124C28.8594 62.7654 29.1667 62.0235 29.1667 61.25V49.5833H40.8333V61.25C40.8333 62.0235 41.1406 62.7654 41.6876 63.3124C42.2346 63.8594 42.9764 64.1667 43.75 64.1667H52.5C53.2735 64.1667 54.0154 63.8594 54.5624 63.3124C55.1094 62.7654 55.4167 62.0235 55.4167 61.25V40.8333H61.25C61.8149 40.8357 62.3682 40.6737 62.8426 40.3671C63.317 40.0604 63.6919 39.6224 63.9216 39.1063C64.1514 38.5903 64.226 38.0186 64.1364 37.4608C64.0468 36.9031 63.7969 36.3835 63.4171 35.9654Z" fill="black"/>
</svg>
