<svg width="70" height="70" viewBox="0 0 70 70" fill="none" xmlns="http://www.w3.org/2000/svg">
<path d="M14 17.5H2.73002C1.43502 17.5 0.140022 18.62 0.315022 20.44L5.77502 55.405C5.77502 55.405 12.25 29.645 13.51 23.45C13.895 21.595 15.645 21 16.94 21H35C35 21 32.55 13.72 32.305 12.915C31.885 11.375 31.115 10.5 29.575 10.5H17.99C16.73 10.5 15.54 11.305 15.19 12.74C14.875 14.14 14 17.5 14 17.5ZM31.08 17.5H17.08C17.08 17.5 18.55 14 20.125 14H27.58C29.26 14 31.08 17.5 31.08 17.5ZM9.34502 56.875C8.26002 58.52 6.68502 59.5 4.93502 59.5H59.99C61.88 59.5 63.21 58.415 63.595 56.595C65.135 48.93 69.475 27.055 69.475 27.055C69.72 25.305 68.425 24.5 67.305 24.5H56V19.355C56 18.795 55.09 17.5 53.69 17.5H40.53C38.71 17.5 37.485 19.53 37.485 19.53L35 24.5H19.565C18.445 24.5 17.36 25.165 17.15 26.25C17.15 26.25 11.585 49.7 11.13 51.905C10.885 53.2 10.36 55.37 9.34502 56.875ZM53.83 24.5H38.5C38.5 24.5 40.53 21 42.455 21H50.47C52.955 21 53.83 24.5 53.83 24.5Z" fill="black"/>
</svg>
